M48
METRIC,LZ,000.000
;FILE_FORMAT=3:3
;TYPE=PLATED
;Layer: PTH_Through_Via
;EasyEDA v6.5.40, 2024-02-29 21:32:03
;cd2e8cfeff5242bcb39c02c4be924e2f,f2d9dfb49ed74d9cbdeda56209f77222,10
;Gerber Generator version 0.2
;Holesize 1 = 0.306 mm
T01C0.306
%
G05
G90
T01
X036267Y055206
X036025Y045686
X060337Y042696
X048302Y029687
X046219Y027603
X016046Y070597
X045312Y052462
X061186Y047569
X058186Y058132
X063680Y046226
X067796Y041753
X045681Y050557
X043673Y061343
X051625Y058486
X062856Y045429
X062067Y046984
X045230Y060731
X049120Y051189
X025962Y057204
X019569Y043352
X064725Y057500
X069075Y040259
X056820Y047911
X069375Y049872
X052712Y041651
X025024Y040465
X062831Y033581
X030089Y040419
X026966Y044688
X029313Y058449
X028014Y066769
X027985Y057915
X022970Y067873
X027394Y058452
X034448Y060919
X021121Y058444
X017284Y053757
X043313Y036392
X027759Y033413
X023349Y040105
X057897Y048522
X069347Y050673
X065406Y050526
X069703Y053097
X064821Y042666
X069715Y048756
M30
