M48
METRIC,LZ,000.000
;FILE_FORMAT=3:3
;TYPE=PLATED
;Layer: PTH_Through
;EasyEDA v6.5.40, 2024-02-29 21:32:03
;cd2e8cfeff5242bcb39c02c4be924e2f,f2d9dfb49ed74d9cbdeda56209f77222,10
;Gerber Generator version 0.2
;Holesize 1 = 0.306 mm
T01C0.306
;Holesize 2 = 0.701 mm
T02C0.701
;Holesize 3 = 0.800 mm
T03C0.800
;Holesize 4 = 0.901 mm
T04C0.901
;Holesize 5 = 1.000 mm
T05C1.000
;Holesize 6 = 1.101 mm
T06C1.101
;Holesize 7 = 1.200 mm
T07C1.200
%
G05
G90
T01
X036267Y055206
X036025Y045686
X060337Y042696
X048302Y029687
X046219Y027603
X016046Y070597
X045312Y052462
X061186Y047569
X058186Y058132
X063680Y046226
X067796Y041753
X045681Y050557
X043673Y061343
X051625Y058486
X062856Y045429
X062067Y046984
X045230Y060731
X049120Y051189
X025962Y057204
X019569Y043352
X064725Y057500
X069075Y040259
X056820Y047911
X069375Y049872
X052712Y041651
X025024Y040465
X062831Y033581
X030089Y040419
X026966Y044688
X029313Y058449
X028014Y066769
X027985Y057915
X022970Y067873
X027394Y058452
X034448Y060919
X021121Y058444
X017284Y053757
X043313Y036392
X027759Y033413
X023349Y040105
X057897Y048522
X069347Y050673
X065406Y050526
X069703Y053097
X064821Y042666
X069715Y048756
T02
X044577Y030607
X045847Y030607
X047117Y030607
X049530Y030480
X050800Y030480
X052070Y030480
X054610Y030353
X055880Y030353
X057150Y030353
X059690Y030353
X060960Y030353
X062230Y030353
X064770Y030226
X066040Y030226
X067310Y030226
X048090Y071120
X058590Y071120
X058590Y066040
X048090Y066040
X060790Y071120
X071290Y071120
X060790Y066040
X071290Y066040
X060790Y060960
X071290Y060960
T03
X020643Y063500
X023045Y063500
X040709Y063500
X043111Y063500
X010610Y063500
X013012Y063500
X030549Y063373
X032951Y063373
X074999Y066040
X077401Y066040
X041900Y043180
X034300Y043180
X041900Y040640
X034300Y040640
X041900Y038100
X034300Y038100
X044587Y043180
X052187Y043180
X044460Y040640
X052060Y040640
T04
X076709Y047848G85X075809Y047848
X076709Y053498G85X075809Y053498
T05
X019304Y030607
X021844Y030607
X024384Y030607
X026924Y030607
X008382Y030734
X010922Y030734
X013462Y030734
X016002Y030734
T06
X077470Y035560
X074930Y035560
T07
X034163Y029977
X036703Y029967
X031623Y029977
M30
