G04 Layer: BottomSolderMaskLayer*
G04 EasyEDA v6.5.40, 2024-02-29 21:32:03*
G04 cd2e8cfeff5242bcb39c02c4be924e2f,f2d9dfb49ed74d9cbdeda56209f77222,10*
G04 Gerber Generator version 0.2*
G04 Scale: 100 percent, Rotated: No, Reflected: No *
G04 Dimensions in millimeters *
G04 leading zeros omitted , absolute positions ,4 integer and 5 decimal *
%FSLAX45Y45*%
%MOMM*%

%AMMACRO1*1,1,$1,$2,$3*1,1,$1,$4,$5*1,1,$1,0-$2,0-$3*1,1,$1,0-$4,0-$5*20,1,$1,$2,$3,$4,$5,0*20,1,$1,$4,$5,0-$2,0-$3,0*20,1,$1,0-$2,0-$3,0-$4,0-$5,0*20,1,$1,0-$4,0-$5,$2,$3,0*4,1,4,$2,$3,$4,$5,0-$2,0-$3,0-$4,0-$5,$2,$3,0*%
%ADD10O,2.5015952X1.7015968000000001*%
%ADD11MACRO1,0.1016X0.85X-0.7874X-0.85X-0.7874*%
%ADD12C,1.8016*%
%ADD13C,1.1016*%
%ADD14C,1.5016*%
%ADD15O,1.9015964X2.7015948*%
%ADD16MACRO1,0.1016X-0.9X1.3X0.9X1.3*%
%ADD17C,1.4000*%
%ADD18MACRO1,0.1016X-0.8X0.8X0.8X0.8*%
%ADD19C,1.7016*%
%ADD20C,1.5016*%

%LPD*%
D10*
G01*
X7625918Y4784801D03*
G01*
X7625918Y5349798D03*
D11*
G01*
X7746998Y3556000D03*
D12*
G01*
X7493000Y3556000D03*
D13*
G01*
X4457700Y3060700D03*
G01*
X4584700Y3060700D03*
G01*
X4711700Y3060700D03*
G01*
X4953000Y3048000D03*
G01*
X5080000Y3048000D03*
G01*
X5207000Y3048000D03*
G01*
X5461000Y3035300D03*
G01*
X5588000Y3035300D03*
G01*
X5715000Y3035300D03*
G01*
X5969000Y3035300D03*
G01*
X6096000Y3035300D03*
G01*
X6223000Y3035300D03*
G01*
X6477000Y3022600D03*
G01*
X6604000Y3022600D03*
G01*
X6731000Y3022600D03*
D14*
G01*
X2064258Y6350000D03*
G01*
X2304541Y6350000D03*
G01*
X4070858Y6350000D03*
G01*
X4311141Y6350000D03*
G01*
X1060957Y6350000D03*
G01*
X1301242Y6350000D03*
G01*
X3054858Y6337300D03*
G01*
X3295141Y6337300D03*
G01*
X7499858Y6604000D03*
G01*
X7740141Y6604000D03*
D15*
G01*
X3416300Y2997682D03*
G01*
X3670325Y2996692D03*
D16*
G01*
X3162287Y2997695D03*
D17*
G01*
X4190009Y4318000D03*
G01*
X3429990Y4318000D03*
G01*
X4190009Y4064000D03*
G01*
X3429990Y4064000D03*
G01*
X4190009Y3810000D03*
G01*
X3429990Y3810000D03*
G01*
X4458690Y4318000D03*
G01*
X5218709Y4318000D03*
G01*
X4445990Y4064000D03*
G01*
X5206009Y4064000D03*
D18*
G01*
X1930399Y3060700D03*
D19*
G01*
X2184400Y3060700D03*
G01*
X2438400Y3060700D03*
G01*
X2692400Y3060700D03*
D20*
G01*
X4809007Y7112000D03*
G01*
X5858992Y7112000D03*
G01*
X5858992Y6604000D03*
G01*
X4809007Y6604000D03*
G01*
X6079007Y7112000D03*
G01*
X7128992Y7112000D03*
G01*
X6079007Y6604000D03*
G01*
X7128992Y6604000D03*
G01*
X6079007Y6096000D03*
G01*
X7128992Y6096000D03*
D18*
G01*
X838200Y3073400D03*
D19*
G01*
X1092200Y3073400D03*
G01*
X1346200Y3073400D03*
G01*
X1600200Y3073400D03*
M02*
