G04 Layer: TopSolderMaskLayer*
G04 EasyEDA v6.5.40, 2024-02-29 21:32:03*
G04 cd2e8cfeff5242bcb39c02c4be924e2f,f2d9dfb49ed74d9cbdeda56209f77222,10*
G04 Gerber Generator version 0.2*
G04 Scale: 100 percent, Rotated: No, Reflected: No *
G04 Dimensions in millimeters *
G04 leading zeros omitted , absolute positions ,4 integer and 5 decimal *
%FSLAX45Y45*%
%MOMM*%

%AMMACRO1*1,1,$1,$2,$3*1,1,$1,$4,$5*1,1,$1,0-$2,0-$3*1,1,$1,0-$4,0-$5*20,1,$1,$2,$3,$4,$5,0*20,1,$1,$4,$5,0-$2,0-$3,0*20,1,$1,0-$2,0-$3,0-$4,0-$5,0*20,1,$1,0-$4,0-$5,$2,$3,0*4,1,4,$2,$3,$4,$5,0-$2,0-$3,0-$4,0-$5,$2,$3,0*%
%ADD10MACRO1,0.2032X-0.5X0.55X0.5X0.55*%
%ADD11MACRO1,0.2032X1.3X0.8999X1.3X-0.8999*%
%ADD12MACRO1,0.1016X-0.5X0.6X0.5X0.6*%
%ADD13MACRO1,0.1016X-0.5X0.45X0.5X0.45*%
%ADD14MACRO1,0.1016X0.5188X-0.266X0.5188X0.266*%
%ADD15MACRO1,0.1016X-0.5X0.55X0.5X0.55*%
%ADD16MACRO1,0.1016X-0.765X0.68X-0.765X-0.68*%
%ADD17MACRO1,0.1016X0.765X0.68X0.765X-0.68*%
%ADD18MACRO1,0.1016X1.1X-1.75X-1.1X-1.75*%
%ADD19MACRO1,0.1016X1.1X0.55X1.1X-0.55*%
%ADD20O,1.8466053999999998X0.6615938*%
%ADD21R,1.1032X1.7032*%
%ADD22MACRO1,0.2032X0.75X-0.45X-0.75X-0.45*%
%ADD23MACRO1,0.2032X0.45X0.75X0.45X-0.75*%
%ADD24R,2.3032X0.6032*%
%ADD25R,1.7032X1.7032*%
%ADD26O,2.4031956000000005X1.5031974*%
%ADD27O,2.5015952X1.7015968000000001*%
%ADD28MACRO1,0.1016X0.85X-0.7874X-0.85X-0.7874*%
%ADD29C,1.8016*%
%ADD30C,1.1016*%
%ADD31C,1.5016*%
%ADD32O,1.9015964X2.7015948*%
%ADD33MACRO1,0.1016X-0.9X1.3X0.9X1.3*%
%ADD34C,1.4000*%
%ADD35MACRO1,0.1016X-0.85X0.5X0.85X0.5*%
%ADD36MACRO1,0.1016X-0.8X0.8X0.8X0.8*%
%ADD37C,1.7016*%
%ADD38C,1.5016*%

%LPD*%
D10*
G01*
X5942502Y4610100D03*
G01*
X6122512Y4610100D03*
G01*
X5942502Y4864100D03*
G01*
X6122512Y4864100D03*
G01*
X5942502Y5118100D03*
G01*
X6122512Y5118100D03*
G01*
X5942502Y5372100D03*
G01*
X6122512Y5372100D03*
G01*
X5942502Y5626100D03*
G01*
X6122512Y5626100D03*
D11*
G01*
X5321300Y5270500D03*
G01*
X5321300Y4970272D03*
D12*
G01*
X6187490Y4318000D03*
G01*
X5877509Y4318000D03*
D13*
G01*
X3822700Y4758590D03*
G01*
X3822700Y4588591D03*
G01*
X3822700Y5520590D03*
G01*
X3822700Y5350591D03*
D14*
G01*
X5558425Y5861300D03*
G01*
X5558425Y6051299D03*
G01*
X5338174Y5956300D03*
G01*
X5063125Y5848600D03*
G01*
X5063125Y6038599D03*
G01*
X4842874Y5943600D03*
D15*
G01*
X6798307Y5803900D03*
G01*
X6638307Y5803900D03*
G01*
X6798307Y5549900D03*
G01*
X6638307Y5549900D03*
G01*
X6811007Y5283200D03*
G01*
X6651007Y5283200D03*
G01*
X6798307Y5041900D03*
G01*
X6638307Y5041900D03*
G01*
X6798307Y4787900D03*
G01*
X6638307Y4787900D03*
G01*
X6811007Y4533900D03*
G01*
X6651007Y4533900D03*
G01*
X6798307Y4279900D03*
G01*
X6638307Y4279900D03*
G01*
X6811007Y4025900D03*
G01*
X6651007Y4025900D03*
D16*
G01*
X7823499Y4064007D03*
D17*
G01*
X7416500Y4064007D03*
D16*
G01*
X7823499Y6096007D03*
D17*
G01*
X7416500Y6096007D03*
D18*
G01*
X6367780Y3733800D03*
D19*
G01*
X5748019Y3503799D03*
G01*
X5748019Y3733800D03*
G01*
X5748019Y3963800D03*
D20*
G01*
X4233138Y5436692D03*
G01*
X4233138Y5309692D03*
G01*
X4233138Y5182692D03*
G01*
X4233138Y5055692D03*
G01*
X4233138Y4928692D03*
G01*
X4233138Y4801692D03*
G01*
X4807635Y5436692D03*
G01*
X4807635Y5182692D03*
G01*
X4807635Y5055692D03*
G01*
X4807635Y4547692D03*
D21*
G01*
X1474393Y4167301D03*
G01*
X1601393Y4167301D03*
G01*
X1728393Y4167301D03*
G01*
X1855393Y4167301D03*
G01*
X1982393Y4167301D03*
G01*
X2109393Y4167301D03*
G01*
X2236393Y4167301D03*
G01*
X2363393Y4167301D03*
G01*
X2490393Y4167301D03*
G01*
X2617393Y4167301D03*
G01*
X2744393Y4167301D03*
G01*
X2871393Y4167301D03*
G01*
X2998393Y4167301D03*
G01*
X3125393Y4167301D03*
D22*
G01*
X3275401Y4495800D03*
G01*
X3275401Y4622800D03*
G01*
X3275401Y5511800D03*
G01*
X3275398Y5638800D03*
D23*
G01*
X3125398Y5967300D03*
G01*
X2998398Y5967300D03*
G01*
X2871398Y5967300D03*
G01*
X2744398Y5967300D03*
G01*
X2617398Y5967300D03*
G01*
X2490398Y5967300D03*
G01*
X2363398Y5967300D03*
G01*
X2109398Y5967300D03*
G01*
X1982398Y5967300D03*
G01*
X1855398Y5967300D03*
G01*
X1728398Y5967300D03*
G01*
X1601398Y5967300D03*
G01*
X1474398Y5967300D03*
D24*
G01*
X7365898Y4937302D03*
G01*
X7365898Y5002301D03*
G01*
X7365898Y5067300D03*
G01*
X7365898Y5197297D03*
D25*
G01*
X7404100Y4737100D03*
G01*
X7404100Y5397500D03*
D26*
G01*
X7706613Y4705350D03*
G01*
X7706613Y5429250D03*
D27*
G01*
X7625918Y4784801D03*
G01*
X7625918Y5349798D03*
D28*
G01*
X7746998Y3556000D03*
D29*
G01*
X7493000Y3556000D03*
D30*
G01*
X4457700Y3060700D03*
G01*
X4584700Y3060700D03*
G01*
X4711700Y3060700D03*
G01*
X4953000Y3048000D03*
G01*
X5080000Y3048000D03*
G01*
X5207000Y3048000D03*
G01*
X5461000Y3035300D03*
G01*
X5588000Y3035300D03*
G01*
X5715000Y3035300D03*
G01*
X5969000Y3035300D03*
G01*
X6096000Y3035300D03*
G01*
X6223000Y3035300D03*
G01*
X6477000Y3022600D03*
G01*
X6604000Y3022600D03*
G01*
X6731000Y3022600D03*
D31*
G01*
X2064258Y6350000D03*
G01*
X2304541Y6350000D03*
G01*
X4070858Y6350000D03*
G01*
X4311141Y6350000D03*
G01*
X1060957Y6350000D03*
G01*
X1301242Y6350000D03*
G01*
X3054858Y6337300D03*
G01*
X3295141Y6337300D03*
G01*
X7499858Y6604000D03*
G01*
X7740141Y6604000D03*
D32*
G01*
X3416300Y2997682D03*
G01*
X3670325Y2996692D03*
D33*
G01*
X3162287Y2997695D03*
D34*
G01*
X4190009Y4318000D03*
G01*
X3429990Y4318000D03*
G01*
X4190009Y4064000D03*
G01*
X3429990Y4064000D03*
G01*
X4190009Y3810000D03*
G01*
X3429990Y3810000D03*
G01*
X4458690Y4318000D03*
G01*
X5218709Y4318000D03*
G01*
X4445990Y4064000D03*
G01*
X5206009Y4064000D03*
D35*
G01*
X1867100Y7157316D03*
G01*
X2527099Y7157321D03*
G01*
X1867100Y6787278D03*
G01*
X2527099Y6787281D03*
G01*
X876500Y7157316D03*
G01*
X1536499Y7157321D03*
G01*
X876500Y6787278D03*
G01*
X1536499Y6787281D03*
G01*
X2819600Y7144616D03*
G01*
X3479599Y7144621D03*
G01*
X2819600Y6774578D03*
G01*
X3479599Y6774581D03*
G01*
X3822900Y7157316D03*
G01*
X4482899Y7157321D03*
G01*
X3822900Y6787278D03*
G01*
X4482899Y6787281D03*
D36*
G01*
X1930399Y3060700D03*
D37*
G01*
X2184400Y3060700D03*
G01*
X2438400Y3060700D03*
G01*
X2692400Y3060700D03*
D38*
G01*
X4809007Y7112000D03*
G01*
X5858992Y7112000D03*
G01*
X5858992Y6604000D03*
G01*
X4809007Y6604000D03*
G01*
X6079007Y7112000D03*
G01*
X7128992Y7112000D03*
G01*
X6079007Y6604000D03*
G01*
X7128992Y6604000D03*
G01*
X6079007Y6096000D03*
G01*
X7128992Y6096000D03*
D36*
G01*
X838200Y3073400D03*
D37*
G01*
X1092200Y3073400D03*
G01*
X1346200Y3073400D03*
G01*
X1600200Y3073400D03*
M02*
